# xmcd
#
# Track frame offsets: 
#        150
#        21790
#        36926
#        56265
#        69663
#        81216
#
# Disc length: 1319 seconds
#
# Revision: 0
# Processed by: cddbd v1.5.2PL0 Copyright (c) Steve Scherf et al.
# Submitted via: ExactAudioCopyFreeDBPlugin 1.0
#
DISCID=46052506
DTITLE=Rachel Dawick - Ed's Bar and Grill
DYEAR=2009
DGENRE=New Zealand: Country/Blues
TTITLE0=Ed's Bar and Grill
TTITLE1=Laid Down and Put to Rest
TTITLE2=Body is a Mountain
TTITLE3=Dust Begins to Clear
TTITLE4=Don't You Know
TTITLE5=Follow Me Down This Road
EXTD=
EXTT0=
EXTT1=
EXTT2=
EXTT3=
EXTT4=
EXTT5=
PLAYORDER=
